<svg viewBox="0 0 1052.045 1063.18" xmlns="http://www.w3.org/2000/svg"><path d="M361.585 21.333h328.59v118.33c35.428 14.943 65.982 32.797 93.84 54.008l-1.042-.76 104.084-60.075 164.66 286.72-104.22 59.847c2.215 15.83 3.48 34.118 3.48 52.702s-1.265 36.872-3.714 54.783l.233-2.08 104.22 59.846-164.66 286.72-104.128-60.075c-26.816 20.45-57.37 38.304-90.014 52.196l-2.783 1.052v120.786H361.587V928.596c-35.428-14.944-65.982-32.798-93.84-54.01l1.042.762-104.13 60.075L0 648.703l104.266-59.847c-2.25-16.103-3.532-34.708-3.532-53.612s1.284-37.51 3.77-55.73l-.238 2.118L.046 421.694l164.66-286.72 104.128 60.075c26.804-20.482 57.34-38.364 89.973-52.286l2.78-1.054zM621.91 89.6H429.85v99.715l-22.756 8.01c-43.604 15.5-81.234 37.518-113.828 65.273l.505-.42-18.204 15.52-85.744-49.29-96.575 168.39 86.472 49.745-4.55 23.94c-3.968 19.54-6.24 42-6.24 64.99s2.272 45.45 6.6 67.166l-.36-2.178 4.55 23.94-86.47 49.743 96.574 168.39 85.743-49.788 18.203 15.52c32.015 27.31 69.55 49.32 110.552 64.068l2.498.784 22.756 8.01v95.936h192.056V877.35l22.756-8.01c43.707-15.468 81.432-37.49 114.105-65.275l-.51.422 18.205-15.52 85.743 49.29 96.575-168.39-86.744-49.472 4.55-23.984c3.942-19.244 6.198-41.364 6.198-64.01s-2.256-44.766-6.555-66.146l.357 2.135-4.55-23.985 86.698-49.79-96.575-168.39-85.697 49.653-18.204-15.61c-32.016-27.31-69.55-49.322-110.553-64.07l-2.498-.783-22.757-8.01zm-96.03 235.747c114.867 0 207.986 93.118 207.986 207.986S640.748 741.32 525.88 741.32c-114.867 0-207.986-93.12-207.986-207.987.13-114.815 93.17-207.856 207.973-207.986h.012zm0 347.705c77.165 0 139.72-62.554 139.72-139.72s-62.555-139.718-139.72-139.718c-77.165 0-139.72 62.554-139.72 139.72.08 77.132 62.587 139.64 139.713 139.718h.007z"/></svg>