<svg height="24" viewBox="0 0 24 24" width="24" xmlns="http://www.w3.org/2000/svg"><path d="m7 22h2v2h-2zm4 2h2v-2h-2zm4 0h2v-2h-2zm7-15.5c0 3.77-3.4 6.86-8.55 11.53l-1.45 1.32-1.45-1.32c-5.15-4.67-8.55-7.76-8.55-11.53 0-3.09 2.42-5.5 5.5-5.5 1.74 0 3.41.81 4.5 2.08 1.09-1.27 2.76-2.08 4.5-2.08 3.08 0 5.5 2.41 5.5 5.5m-2 0c0-2-1.5-3.5-3.5-3.5-1.54 0-3.04 1-3.57 2.36h-1.86c-.53-1.36-2.03-2.36-3.57-2.36-2 0-3.5 1.5-3.5 3.5 0 2.89 3.14 5.74 7.89 10.05l.11.1.1-.1c4.76-4.31 7.9-7.16 7.9-10.05z"/></svg>