<svg viewBox="0 0 72 72" xmlns="http://www.w3.org/2000/svg"><g fill="none" stroke="#000" stroke-linecap="round" stroke-linejoin="round" stroke-width="2"><g stroke-miterlimit="10"><path d="m49.8675 30.3979c-.4428.6348-1.2583 1.0208-2.0207 1.2533-1.0107.3083-2.0878.3971-3.1319.2346-1.8682-.2907-3.5402-1.174-4.8179-2.4517-1.2014-1.2014-2.0541-2.7514-2.3933-4.4853"/><path d="m40.0032 22.8224c0-1.6312 1.6529-2.9535 3.6919-2.9535s3.6919 1.3223 3.6919 2.9535"/><path d="m49.4103 24.9866c0 1.1609-1.1763 2.1019-2.6274 2.1019-.7528 0-1.4609-.3402-1.9982-.8332-.8327-.7641-1.1063-2.0186-.6344-3.0455.0686-.1493.1516-.284.252-.3874"/><path d="m53.3083 15.9025c.9791-.6237 2.4048-.1371 3.1844 1.0868s.6178 2.7216-.3613 3.3453"/><path d="m54.1952 35.9239c1.1689 2.1072.4082 4.7631-1.699 5.932s-4.7631.4082-5.932-1.699"/><path d="m38.1631 16.1932c-2.253-.8548-5.9182 1.2312-6.5125 3.6757-.5693 2.3415.9006 6.2141 3.1536 7.0689"/><path d="m50.8669 20.8344c5.4159.6272 6.3961 6.4611 5.8024 8.7734-.8819 3.4349-5.3899 5.4013-8.1201 4.6907"/><path d="m50.8669 20.8344c1.2816-3.5081-.5232-7.3909-4.0313-8.6725s-7.3909.5232-8.6725 4.0313"/><path d="m34.8042 26.9378c-2.0326 3.7956-.6035 8.5203 3.1921 10.5529s8.5203.6035 10.5529-3.1921"/></g><path d="m25.9293 32.3094c3.992 4.886 2.805 12.462 2.805 12.462s-7.66-.347-11.653-5.233-2.805-12.462-2.805-12.462 7.661.351 11.653 5.233z"/><path d="m37.1043 40.8644c-3.438 3.548-7.676 10.246-5.829 20.735"/></g></svg>